<svg width="1000" height="336" viewBox="0 0 1000 336" fill="none" xmlns="http://www.w3.org/2000/svg">
<g clip-path="url(#clip0_707_191)">
<path d="M1484.98 0.0715289C1402.51 1.91415 1322.66 39.021 1242.81 76.1278C1160.9 114.192 1078.98 152.256 994.246 152.256C909.509 152.256 827.597 114.192 745.685 76.1278C663.772 38.0639 581.86 0 497.123 0C412.387 0 330.474 38.0639 248.562 76.1278C166.65 114.192 84.7374 152.256 0.000428317 152.256L0 334.891C82.4694 333.048 162.322 295.942 242.175 258.835C324.087 220.771 405.999 182.707 490.736 182.707C575.473 182.707 657.385 220.771 739.298 258.835C821.21 296.899 903.122 334.963 987.859 334.963C1072.6 334.963 1154.51 296.899 1236.42 258.835C1318.33 220.771 1400.25 182.707 1484.98 182.707L1484.98 0.0715289Z" fill="#D6027E" fill-opacity="0.05"/>
</g>
<defs>
<clipPath id="clip0_707_191">
<rect width="1000" height="335.088" fill="white"/>
</clipPath>
</defs>
</svg>
